<?xml version="1.0" encoding="UTF-8" standalone="no"?>
<!-- Created with Inkscape (http://www.inkscape.org/) -->

<svg
   width="61.455242"
   height="11.561333"
   viewBox="0 0 16.260033 3.0589359"
   version="1.1"
   id="svg1"
   xml:space="preserve"
   inkscape:version="1.3.2 (091e20e, 2023-11-25, custom)"
   sodipodi:docname="FreshFuelGauge.svg"
   xmlns:inkscape="http://www.inkscape.org/namespaces/inkscape"
   xmlns:sodipodi="http://sodipodi.sourceforge.net/DTD/sodipodi-0.dtd"
   xmlns="http://www.w3.org/2000/svg"
   xmlns:svg="http://www.w3.org/2000/svg"><sodipodi:namedview
     id="namedview1"
     pagecolor="#000000"
     bordercolor="#000000"
     borderopacity="0.25"
     inkscape:showpageshadow="2"
     inkscape:pageopacity="0.0"
     inkscape:pagecheckerboard="0"
     inkscape:deskcolor="#d1d1d1"
     inkscape:document-units="px"
     showborder="false"
     shape-rendering="crispEdges"
     inkscape:zoom="4"
     inkscape:cx="149.625"
     inkscape:cy="101.125"
     inkscape:window-width="3840"
     inkscape:window-height="2054"
     inkscape:window-x="2869"
     inkscape:window-y="-11"
     inkscape:window-maximized="1"
     inkscape:current-layer="layer13"
     inkscape:export-bgcolor="#ff00ffff" /><defs
     id="defs1" /><g
     inkscape:groupmode="layer"
     id="layer4"
     inkscape:label="Pointer"
     style="display:inline"
     transform="translate(42.961681,-27.280956)"
     inkscape:export-filename="..\..\..\..\..\..\repos\FSHardware\C172EngineGauges\C172EngineGuagesESP32_MFCommunity\CC172EngineGauges\Images\Pointer.png"
     inkscape:export-xdpi="96"
     inkscape:export-ydpi="96"><g
       id="g31"
       inkscape:label="PointerShape"
       transform="matrix(0.35677235,-1.2657766,1.2657766,0.35677235,-85.324104,42.360545)"
       inkscape:transform-center-x="-6.4863852"
       inkscape:transform-center-y="-0.076469725"
       inkscape:export-filename="..\..\..\..\..\..\repos\FSHardware\C172EngineGauges\C172EngineGuagesESP32_MFCommunity\CC172EngineGauges\Images\FuelPointer.png"
       inkscape:export-xdpi="96"
       inkscape:export-ydpi="96"><path
         style="opacity:1;fill:#111111;fill-opacity:1;stroke:#ffffff;stroke-width:0.132292;stroke-dasharray:none;stroke-opacity:1"
         d="M 22.02969,39.990201 20.018487,28.998743"
         id="path22" /><path
         style="opacity:1;fill:#ffffff;fill-opacity:1;stroke:#ffffff;stroke-width:0.132292;stroke-dasharray:none;stroke-opacity:1"
         d="M 22.076463,40.083747 18.007284,29.887415"
         id="path23" /><ellipse
         style="opacity:1;fill:#ffffff;fill-opacity:1;stroke:#ffffff;stroke-width:0.137316;stroke-dasharray:none;stroke-opacity:1"
         id="path24"
         cx="18.979719"
         cy="29.364616"
         rx="1.0888942"
         ry="1.1343695" /><path
         style="opacity:1;fill:#ffffff;fill-opacity:1;stroke:#ffffff;stroke-width:0.0220971;stroke-dasharray:none;stroke-opacity:1"
         d="m 75.846093,112.39416 c -0.458951,-0.0237 -0.655162,0.44569 -0.83546,0.78099 -0.77598,1.26813 -2.312124,2.058 -3.798776,1.82922 -0.610082,-0.0558 -1.141841,-0.36708 -1.682942,-0.61552 -0.409898,-0.19605 -0.937125,0.18581 -0.829415,0.63911 0.330432,0.99431 0.762723,1.95909 1.13371,2.94135 3.860583,9.73147 7.718616,19.46402 11.620453,29.17904 0.174186,0.59543 1.256936,0.53858 1.266178,-0.12564 -0.152726,-1.12306 -0.401215,-2.2349 -0.590015,-3.35366 -1.878266,-10.25764 -3.741945,-20.51828 -5.636271,-30.77279 -0.05554,-0.30261 -0.339462,-0.5268 -0.647462,-0.5021 z"
         id="path27"
         transform="scale(0.26458333)" /><path
         style="opacity:1;fill:#ffffff;fill-opacity:1;stroke:#ffffff;stroke-width:0.00390625;stroke-dasharray:none;stroke-opacity:1"
         d="m 82.328995,147.03702 c -0.09613,0.005 -0.185055,0.0334 -0.279442,0.0462 -0.242795,0.0537 -0.423977,0.30313 -0.389839,0.55104 0.01865,0.14552 0.08994,0.27776 0.13693,0.41544 0.06855,0.1655 0.122071,0.33855 0.208022,0.49606 0.156822,0.26042 0.551406,0.33134 0.785127,0.13446 0.159516,-0.12063 0.222844,-0.33927 0.174573,-0.53046 -0.04671,-0.24907 -0.08575,-0.50003 -0.140019,-0.74741 -0.05821,-0.21796 -0.270455,-0.37235 -0.495352,-0.36532 z"
         id="path28"
         transform="scale(0.26458333)" /></g></g></svg>
